<?xml version="1.0" encoding="UTF-8" standalone="no"?>
<svg
	xmlns:svg="http://www.w3.org/2000/svg"
	xmlns="http://www.w3.org/2000/svg"
	xmlns:xlink="http://www.w3.org/1999/xlink"
	version="1.0"
	width="850"
	height="300">
	<defs>
		<linearGradient id="linearGradient3530">
			<stop style="stop-color:#ffffd7;stop-opacity:1" offset="0" />
			<stop style="stop-color:#ebebff;stop-opacity:1" offset="1" />
		</linearGradient>
		<linearGradient
			id="linearGradient3444">
			<stop style="stop-color:#8A2b62;stop-opacity:1" offset="0" />
			<stop style="stop-color:#9400d3;stop-opacity:1" offset="1" />
		</linearGradient>
		<linearGradient
			id="linearGradient3428">
			<stop style="stop-color:#ffffcc;stop-opacity:1" offset="0" />
			<stop style="stop-color:#ffff64;stop-opacity:1" offset="1" />
		</linearGradient>
		<linearGradient id="linearGradient3450" xlink:href="#linearGradient3444"
			x1="800" y1="250" x2="650" y2="50" gradientUnits="userSpaceOnUse"
			gradientTransform="translate(17.893316,-114.07616)" />
		<linearGradient id="linearGradient3536" xlink:href="#linearGradient3530"
			x1="400.5" y1="270.5" x2="249.5" y2="69.5" gradientUnits="userSpaceOnUse" />
		<linearGradient id="linearGradient3548" xlink:href="#linearGradient3530"
			x1="158.12413" y1="277.79596" x2="8.9427366" y2="78.161652" gradientUnits="userSpaceOnUse" />
		<radialGradient id="radialGradient3475" xlink:href="#linearGradient3428"
			cx="525" cy="150" r="75.5" fx="525" fy="150" gradientUnits="userSpaceOnUse"
			gradientTransform="matrix(1,2.2217684e-8,-2.9574532e-8,1.3311256,-15.93359,-20.500251)" />
	</defs>
	<rect width="850" height="300" x="0" y="0" style="fill:#027f00;stroke:none" />
	<g transform="matrix(0.9659258,-0.258819,0.258819,0.9659258,0,0)">
		<rect width="150" height="200" rx="12" ry="12" x="8.3319988" y="79.691071"
			style="fill:#333333;fill-opacity:0.5;stroke:none" />
		<rect width="150" height="200" rx="12.1" ry="12" x="6.9178696" y="77.241257"
			style="fill:url(#linearGradient3548);stroke:#000000;stroke-width:1" />
		<text x="82.19912" y="211.1553"
			style="font-size:96px;font-weight:bold;text-align:center;text-anchor:middle;fill:#000000;stroke:none;font-family:Arial, sans,sans-serif">3</text>
	</g>
	<g>
	<rect width="150" height="200" rx="12" ry="12" x="252" y="72"
		style="fill:#333333;fill-opacity:0.5;stroke:none" />
	<rect width="150" height="200" rx="12" ry="12" x="250" y="70"
		style="fill:url(#linearGradient3536);stroke:#000000;stroke-width:1" />
	<text x="325.23438" y="203.89063"
		style="font-size:96px;font-weight:bold;text-align:center;text-anchor:middle;fill:#000000;stroke:none;font-family:Arial, sans,sans-serif">8</text>
		</g>
	<g transform="matrix(0.9945268,-0.1044814,0.1044814,0.9945268,0,0)">
		<rect width="150" height="200" rx="12" ry="12" x="435.84641" y="81.366608"
			style="fill:#333333;fill-opacity:0.5;stroke:none" />
		<rect width="150" height="200" rx="12" ry="12" x="434.06635" y="79.168625"
			style="fill:url(#radialGradient3475);stroke:#000000;stroke-width:1" />
	</g>
	<g transform="matrix(0.9844174,0.1758475,-0.1758475,0.9844174,0,0)">
		<rect width="150" height="200" rx="10" ry="10" x="670.21429" y="-62.458767"
			style="fill:#333333;fill-opacity:0.5;stroke:none" />
		<rect width="150" height="200" rx="10" ry="10" x="667.89331" y="-64.076157"
			style="fill:url(#linearGradient3450);stroke:#000000;stroke-width:1" />
	</g>
</svg>
